<mxfile host="app.diagrams.net" agent="Mozilla/5.0 (Macintosh; Intel Mac OS X 10_15_7) AppleWebKit/537.36 (KHTML, like Gecko) Chrome/135.0.0.0 Safari/537.36" version="25.0.1">
  <diagram name="Page-1" id="8Ugm5JspZF9AuBohLj4z">
    <mxGraphModel dx="978" dy="401" grid="1" gridSize="10" guides="1" tooltips="1" connect="1" arrows="1" fold="1" page="1" pageScale="1" pageWidth="1100" pageHeight="850" math="0" shadow="0">
      <root>
        <mxCell id="0" />
        <mxCell id="1" parent="0" />
        <mxCell id="YB1mlC_2ujmu96Hn5Y7A-24" value="" style="edgeStyle=orthogonalEdgeStyle;rounded=0;orthogonalLoop=1;jettySize=auto;html=1;" edge="1" parent="1" source="YB1mlC_2ujmu96Hn5Y7A-1" target="YB1mlC_2ujmu96Hn5Y7A-2">
          <mxGeometry relative="1" as="geometry" />
        </mxCell>
        <mxCell id="YB1mlC_2ujmu96Hn5Y7A-1" value="Administrador" style="shape=umlActor;verticalLabelPosition=bottom;verticalAlign=top;html=1;" vertex="1" parent="1">
          <mxGeometry x="65" y="20" width="30" height="60" as="geometry" />
        </mxCell>
        <mxCell id="YB1mlC_2ujmu96Hn5Y7A-19" value="" style="edgeStyle=orthogonalEdgeStyle;rounded=0;orthogonalLoop=1;jettySize=auto;html=1;" edge="1" parent="1" source="YB1mlC_2ujmu96Hn5Y7A-2" target="YB1mlC_2ujmu96Hn5Y7A-11">
          <mxGeometry relative="1" as="geometry" />
        </mxCell>
        <mxCell id="YB1mlC_2ujmu96Hn5Y7A-2" value="Registrar equipo" style="ellipse;whiteSpace=wrap;html=1;" vertex="1" parent="1">
          <mxGeometry x="10" y="120" width="140" height="70" as="geometry" />
        </mxCell>
        <mxCell id="YB1mlC_2ujmu96Hn5Y7A-10" value="AÃ±adir jugadores a un equipo" style="ellipse;whiteSpace=wrap;html=1;" vertex="1" parent="1">
          <mxGeometry x="10" y="220" width="140" height="70" as="geometry" />
        </mxCell>
        <mxCell id="YB1mlC_2ujmu96Hn5Y7A-11" value="Consulta lista de equipos y jugadores" style="ellipse;whiteSpace=wrap;html=1;" vertex="1" parent="1">
          <mxGeometry x="10" y="330" width="140" height="70" as="geometry" />
        </mxCell>
      </root>
    </mxGraphModel>
  </diagram>
</mxfile>
